<svg xmlns="http://www.w3.org/2000/svg" viewBox="0 0 1024 1024">
<defs><linearGradient id="bg" x1="0" y1="0" x2="1" y2="1"><stop offset="0" stop-color="#170d15"/><stop offset=".5" stop-color="#08070a"/><stop offset="1" stop-color="#06131a"/></linearGradient><filter id="s"><feDropShadow dx="0" dy="26" stdDeviation="24" flood-color="#000" flood-opacity=".65"/></filter></defs>
<rect width="1024" height="1024" fill="url(#bg)"/><path d="M0 160h1024M0 320h1024M0 480h1024M0 640h1024M0 800h1024M160 0v1024M320 0v1024M480 0v1024M640 0v1024M800 0v1024" stroke="#f3efe2" stroke-opacity=".05" stroke-width="2"/>
<text x="512" y="132" text-anchor="middle" fill="#f3efe2" font-family="Impact,Arial Black,sans-serif" font-size="126" font-style="italic">GIG WALL</text><text x="512" y="174" text-anchor="middle" fill="#19d5ff" font-family="Arial Black,sans-serif" font-size="24" letter-spacing="8">UNDERGROUND LIVE POSTERS</text>
<g transform="translate(90 230) rotate(-5)" filter="url(#s)"><rect width="176" height="254" fill="#f3efe2"/><image href="./img/review-posters/poster-00.svg" x="8" y="8" width="160" height="238" preserveAspectRatio="xMidYMid slice"/></g><g transform="translate(250 205) rotate(3)" filter="url(#s)"><rect width="176" height="254" fill="#f3efe2"/><image href="./img/review-posters/poster-01.svg" x="8" y="8" width="160" height="238" preserveAspectRatio="xMidYMid slice"/></g><g transform="translate(410 235) rotate(-2)" filter="url(#s)"><rect width="176" height="254" fill="#f3efe2"/><image href="./img/review-posters/poster-02.svg" x="8" y="8" width="160" height="238" preserveAspectRatio="xMidYMid slice"/></g><g transform="translate(570 210) rotate(4)" filter="url(#s)"><rect width="176" height="254" fill="#f3efe2"/><image href="./img/review-posters/poster-03.svg" x="8" y="8" width="160" height="238" preserveAspectRatio="xMidYMid slice"/></g><g transform="translate(730 238) rotate(-4)" filter="url(#s)"><rect width="176" height="254" fill="#f3efe2"/><image href="./img/review-posters/poster-04.svg" x="8" y="8" width="160" height="238" preserveAspectRatio="xMidYMid slice"/></g><g transform="translate(170 492) rotate(2)" filter="url(#s)"><rect width="176" height="254" fill="#f3efe2"/><image href="./img/review-posters/poster-05.svg" x="8" y="8" width="160" height="238" preserveAspectRatio="xMidYMid slice"/></g><g transform="translate(450 512) rotate(-3)" filter="url(#s)"><rect width="176" height="254" fill="#f3efe2"/><image href="./img/review-posters/poster-06.svg" x="8" y="8" width="160" height="238" preserveAspectRatio="xMidYMid slice"/></g><g transform="translate(650 490) rotate(5)" filter="url(#s)"><rect width="176" height="254" fill="#f3efe2"/><image href="./img/review-posters/poster-07.svg" x="8" y="8" width="160" height="238" preserveAspectRatio="xMidYMid slice"/></g>
<g transform="translate(512 568) rotate(-3)" filter="url(#s)"><rect x="-142" y="-202" width="284" height="404" fill="#f3efe2"/><image href="./img/review-posters/poster-08.svg" x="-130" y="-190" width="260" height="380" preserveAspectRatio="xMidYMid slice"/><rect x="-142" y="-202" width="284" height="404" fill="none" stroke="#ff4f8b" stroke-width="8"/></g>
<rect x="162" y="884" width="700" height="72" rx="36" fill="#050507" fill-opacity=".8" stroke="#f3efe2" stroke-opacity=".2"/><text x="512" y="930" text-anchor="middle" fill="#f3efe2" font-family="Arial Black,sans-serif" font-size="25" letter-spacing="5">GENERATE · PRINT · PASTE</text>
</svg>
