<svg xmlns="http://www.w3.org/2000/svg" width="768" height="1152" viewBox="0 0 768 1152">
  <rect width="768" height="1152" fill="#f6f4ef"/>
  <rect x="0" y="0" width="768" height="246" fill="#f31313"/>
  <rect x="0" y="246" width="768" height="312" fill="#4dcfe8"/>
  <rect x="0" y="558" width="768" height="594" fill="#ffe100"/>
  <rect x="428" y="0" width="116" height="1152" fill="#151515"/>
  <rect x="62" y="126" width="430" height="82" fill="#151515"/>
  <rect x="228" y="496" width="390" height="178" fill="#151515"/>
  <rect x="78" y="830" width="530" height="40" fill="#151515"/>
  <circle cx="566" cy="286" r="86" fill="#ffe100"/>
  <circle cx="566" cy="286" r="58" fill="#f6f4ef"/>
  <circle cx="566" cy="286" r="31" fill="#151515"/>
  <g fill="#151515" font-family="Helvetica, Arial, sans-serif" font-weight="700">
    <text x="62" y="84" font-size="28">LIVE ROOM</text>
    <text x="62" y="346" font-size="118">A01</text>
    <text x="62" y="452" font-size="72">TONIGHT</text>
    <text x="62" y="742" font-size="38">ROOM 05 / EAST STAGE</text>
    <text x="62" y="918" font-size="34">FRI OCT 22</text>
    <text x="62" y="1004" font-size="24">23:00 / ALL AGES</text>
  </g>
  <g fill="#151515" opacity="0.92">
    <rect x="62" y="126" width="430" height="82"/>
    <rect x="228" y="496" width="390" height="178"/>
    <rect x="78" y="830" width="530" height="40"/>
  </g>
  <g fill="#151515" opacity="0.22">
    <circle cx="82" cy="76" r="4"/>
    <circle cx="104" cy="76" r="4"/>
    <circle cx="126" cy="76" r="4"/>
    <circle cx="650" cy="1014" r="4"/>
    <circle cx="672" cy="1014" r="4"/>
    <circle cx="694" cy="1014" r="4"/>
  </g>
</svg>
