<svg xmlns="http://www.w3.org/2000/svg" width="768" height="1152" viewBox="0 0 768 1152">
  <rect width="768" height="1152" fill="#f6f4ef"/>
  <rect x="-80" y="0" width="928" height="292" fill="#f31313"/>
  <rect x="0" y="292" width="768" height="360" fill="#4dcfe8"/>
  <rect x="-110" y="652" width="988" height="500" fill="#ffe100"/>
  <rect x="504" y="-40" width="152" height="1240" fill="#151515"/>
  <rect x="-44" y="188" width="624" height="76" fill="#151515"/>
  <rect x="186" y="604" width="536" height="154" fill="#151515"/>
  <rect x="-22" y="864" width="438" height="34" fill="#151515"/>
  <circle cx="612" cy="378" r="96" fill="#ffe100"/>
  <circle cx="612" cy="378" r="54" fill="#f6f4ef"/>
  <circle cx="612" cy="378" r="24" fill="#151515"/>
  <polygon points="0,1032 768,812 768,1152 0,1152" fill="#f31313" opacity="0.96"/>
  <polygon points="768,90 610,292 768,292" fill="#ffe100"/>

  <g fill="#151515" font-family="Helvetica, Arial, sans-serif" font-weight="900">
    <text x="-46" y="154" font-size="108" letter-spacing="-8">BACK</text>
    <text x="-24" y="438" font-size="232" letter-spacing="-18">ROOM</text>
    <text x="36" y="586" font-size="108" letter-spacing="-7">TONIGHT</text>
    <text x="70" y="826" font-size="44">FRI 22 / EAST STAGE</text>
    <text x="74" y="946" font-size="34">23:00</text>
    <text x="234" y="946" font-size="34">ROOM 05</text>
  </g>

  <g fill="#f6f4ef" font-family="Helvetica, Arial, sans-serif" font-weight="900">
    <text x="554" y="100" font-size="48" writing-mode="tb">SIDE A</text>
    <text x="548" y="572" font-size="54" writing-mode="tb" letter-spacing="-3">LIVE LIVE</text>
  </g>

  <g fill="#151515" font-family="Helvetica, Arial, sans-serif" font-weight="700">
    <text x="46" y="78" font-size="18">ED. 05 / FLAT GIG SYSTEM</text>
    <text x="48" y="704" font-size="20">LOW ENTRY / HIGH NOISE</text>
    <text x="48" y="734" font-size="20">NO. 128 / ALL AGES</text>
    <text x="46" y="1080" font-size="22">POSTER WALL PRESENTS</text>
  </g>

  <g fill="#151515" opacity="0.24">
    <circle cx="70" cy="80" r="4"/>
    <circle cx="94" cy="80" r="4"/>
    <circle cx="118" cy="80" r="4"/>
    <circle cx="642" cy="1006" r="4"/>
    <circle cx="668" cy="1006" r="4"/>
    <circle cx="694" cy="1006" r="4"/>
  </g>
</svg>
