<svg xmlns="http://www.w3.org/2000/svg" viewBox="0 0 720 1024">
  <rect width="720" height="1024" fill="#ED1717"/>
  <path d="M38 42H618L682 106V256H102L38 192Z" fill="#F5EDDD"/>
  <text x="68" y="142" fill="#ED1717" font-family="Impact, Arial Black, sans-serif" font-size="92" font-weight="900" letter-spacing="1">AFTER</text>
  <text x="68" y="228" fill="#ED1717" font-family="Impact, Arial Black, sans-serif" font-size="92" font-weight="900" letter-spacing="1">HOURS</text>
  <path d="M52 300H318L390 372V846H124L52 774Z" fill="#101010"/>
  <text x="90" y="390" fill="#ED1717" font-family="Impact, Arial Black, sans-serif" font-size="78" font-weight="900" letter-spacing="-1">NO</text>
  <text x="90" y="468" fill="#ED1717" font-family="Impact, Arial Black, sans-serif" font-size="78" font-weight="900" letter-spacing="-1">RE-ENTRY</text>
  <line x1="90" y1="528" x2="348" y2="528" stroke="#ED1717" stroke-width="6"/>
  <text x="90" y="588" fill="#ED1717" font-family="Arial Black, sans-serif" font-size="34" font-weight="900">FRI. OCT. 20</text>
  <text x="90" y="640" fill="#ED1717" font-family="Arial Black, sans-serif" font-size="34" font-weight="900">23:00 / ROOM 03</text>
  <text x="90" y="708" fill="#ED1717" font-family="Arial Black, sans-serif" font-size="28" font-weight="900" letter-spacing="4">POSTER WALL</text>
  <text x="90" y="760" fill="#ED1717" font-family="Arial Black, sans-serif" font-size="22" font-weight="900" letter-spacing="3">AIGRAM SOCIAL SET</text>
  <path d="M428 300H618L668 350V522H478L428 472Z" fill="#F5EDDD"/>
  <text x="462" y="448" fill="#ED1717" font-family="Impact, Arial Black, sans-serif" font-size="138" font-weight="900">C22</text>
  <path d="M428 566H614L668 620V846H482L428 792Z" fill="#F5EDDD"/>
  <text x="548" y="642" fill="#ED1717" font-family="Impact, Arial Black, sans-serif" font-size="58" font-weight="900" text-anchor="middle">EXIT</text>
  <path d="M486 730H596M556 680L606 730L556 780" fill="none" stroke="#ED1717" stroke-width="28" stroke-linecap="square" stroke-linejoin="miter"/>
  <text x="54" y="946" fill="#F5EDDD" font-family="Arial Black, sans-serif" font-size="26" font-weight="900">ED.03 / FLAT GIG SYSTEM</text>
  <text x="666" y="946" fill="#F5EDDD" font-family="Arial Black, sans-serif" font-size="26" font-weight="900" text-anchor="end">NO.114</text>
</svg>
