<svg xmlns="http://www.w3.org/2000/svg" viewBox="0 0 720 1024">
  <rect width="720" height="1024" fill="#4DCFE8"/>
  <path d="M38 42H618L682 106V256H102L38 192Z" fill="#17664B"/>
  <text x="68" y="142" fill="#4DCFE8" font-family="Impact, Arial Black, sans-serif" font-size="92" font-weight="900" letter-spacing="1">EXIT</text>
  <text x="68" y="228" fill="#4DCFE8" font-family="Impact, Arial Black, sans-serif" font-size="92" font-weight="900" letter-spacing="1">MUSIC</text>
  <path d="M52 300H318L390 372V846H124L52 774Z" fill="#101010"/>
  <text x="90" y="390" fill="#4DCFE8" font-family="Impact, Arial Black, sans-serif" font-size="78" font-weight="900" letter-spacing="-1">MIDNIGHT</text>
  <text x="90" y="468" fill="#4DCFE8" font-family="Impact, Arial Black, sans-serif" font-size="78" font-weight="900" letter-spacing="-1">SET</text>
  <line x1="90" y1="528" x2="348" y2="528" stroke="#4DCFE8" stroke-width="6"/>
  <text x="90" y="588" fill="#4DCFE8" font-family="Arial Black, sans-serif" font-size="34" font-weight="900">FRI. OCT. 23</text>
  <text x="90" y="640" fill="#4DCFE8" font-family="Arial Black, sans-serif" font-size="34" font-weight="900">23:00 / ROOM 06</text>
  <text x="90" y="708" fill="#4DCFE8" font-family="Arial Black, sans-serif" font-size="28" font-weight="900" letter-spacing="4">POSTER WALL</text>
  <text x="90" y="760" fill="#4DCFE8" font-family="Arial Black, sans-serif" font-size="22" font-weight="900" letter-spacing="3">AIGRAM SOCIAL SET</text>
  <path d="M428 300H618L668 350V522H478L428 472Z" fill="#17664B"/>
  <text x="462" y="448" fill="#4DCFE8" font-family="Impact, Arial Black, sans-serif" font-size="138" font-weight="900">F05</text>
  <path d="M428 566H614L668 620V846H482L428 792Z" fill="#17664B"/>
  <text x="548" y="642" fill="#4DCFE8" font-family="Impact, Arial Black, sans-serif" font-size="58" font-weight="900" text-anchor="middle">HALL</text>
  <path d="M486 730H596M556 680L606 730L556 780" fill="none" stroke="#4DCFE8" stroke-width="28" stroke-linecap="square" stroke-linejoin="miter"/>
  <text x="54" y="946" fill="#17664B" font-family="Arial Black, sans-serif" font-size="26" font-weight="900">ED.06 / FLAT GIG SYSTEM</text>
  <text x="666" y="946" fill="#17664B" font-family="Arial Black, sans-serif" font-size="26" font-weight="900" text-anchor="end">NO.135</text>
</svg>
