<svg xmlns="http://www.w3.org/2000/svg" viewBox="0 0 720 1024">
  <rect width="720" height="1024" fill="#2157E8"/>
  <path d="M38 42H618L682 106V256H102L38 192Z" fill="#EFE7D7"/>
  <text x="68" y="142" fill="#2157E8" font-family="Impact, Arial Black, sans-serif" font-size="92" font-weight="900" letter-spacing="1">MUSEUM</text>
  <text x="68" y="228" fill="#2157E8" font-family="Impact, Arial Black, sans-serif" font-size="92" font-weight="900" letter-spacing="1">OF NOISE</text>
  <path d="M52 300H318L390 372V846H124L52 774Z" fill="#0B0B0B"/>
  <text x="90" y="390" fill="#2157E8" font-family="Impact, Arial Black, sans-serif" font-size="78" font-weight="900" letter-spacing="-1">LIVE</text>
  <text x="90" y="468" fill="#2157E8" font-family="Impact, Arial Black, sans-serif" font-size="78" font-weight="900" letter-spacing="-1">ROOM</text>
  <line x1="90" y1="528" x2="348" y2="528" stroke="#2157E8" stroke-width="6"/>
  <text x="90" y="588" fill="#2157E8" font-family="Arial Black, sans-serif" font-size="34" font-weight="900">FRI. OCT. 19</text>
  <text x="90" y="640" fill="#2157E8" font-family="Arial Black, sans-serif" font-size="34" font-weight="900">23:00 / ROOM 02</text>
  <text x="90" y="708" fill="#2157E8" font-family="Arial Black, sans-serif" font-size="28" font-weight="900" letter-spacing="4">POSTER WALL</text>
  <text x="90" y="760" fill="#2157E8" font-family="Arial Black, sans-serif" font-size="22" font-weight="900" letter-spacing="3">AIGRAM SOCIAL SET</text>
  <path d="M428 300H618L668 350V522H478L428 472Z" fill="#EFE7D7"/>
  <text x="462" y="448" fill="#2157E8" font-family="Impact, Arial Black, sans-serif" font-size="138" font-weight="900">B14</text>
  <path d="M428 566H614L668 620V846H482L428 792Z" fill="#EFE7D7"/>
  <text x="548" y="642" fill="#2157E8" font-family="Impact, Arial Black, sans-serif" font-size="58" font-weight="900" text-anchor="middle">GATE</text>
  <path d="M486 730H596M556 680L606 730L556 780" fill="none" stroke="#2157E8" stroke-width="28" stroke-linecap="square" stroke-linejoin="miter"/>
  <text x="54" y="946" fill="#EFE7D7" font-family="Arial Black, sans-serif" font-size="26" font-weight="900">ED.02 / FLAT GIG SYSTEM</text>
  <text x="666" y="946" fill="#EFE7D7" font-family="Arial Black, sans-serif" font-size="26" font-weight="900" text-anchor="end">NO.107</text>
</svg>
