<svg xmlns="http://www.w3.org/2000/svg" viewBox="0 0 720 1024">
  <rect width="720" height="1024" fill="#FF7A59"/>
  <path d="M38 42H618L682 106V256H102L38 192Z" fill="#101010"/>
  <text x="68" y="142" fill="#FF7A59" font-family="Impact, Arial Black, sans-serif" font-size="92" font-weight="900" letter-spacing="1">LATE</text>
  <text x="68" y="228" fill="#FF7A59" font-family="Impact, Arial Black, sans-serif" font-size="92" font-weight="900" letter-spacing="1">SHIFT</text>
  <path d="M52 300H318L390 372V846H124L52 774Z" fill="#F5EDDD"/>
  <text x="90" y="390" fill="#FF7A59" font-family="Impact, Arial Black, sans-serif" font-size="78" font-weight="900" letter-spacing="-1">SHOW</text>
  <text x="90" y="468" fill="#FF7A59" font-family="Impact, Arial Black, sans-serif" font-size="78" font-weight="900" letter-spacing="-1">STARTS</text>
  <line x1="90" y1="528" x2="348" y2="528" stroke="#FF7A59" stroke-width="6"/>
  <text x="90" y="588" fill="#FF7A59" font-family="Arial Black, sans-serif" font-size="34" font-weight="900">FRI. OCT. 26</text>
  <text x="90" y="640" fill="#FF7A59" font-family="Arial Black, sans-serif" font-size="34" font-weight="900">23:00 / ROOM 09</text>
  <text x="90" y="708" fill="#FF7A59" font-family="Arial Black, sans-serif" font-size="28" font-weight="900" letter-spacing="4">POSTER WALL</text>
  <text x="90" y="760" fill="#FF7A59" font-family="Arial Black, sans-serif" font-size="22" font-weight="900" letter-spacing="3">AIGRAM SOCIAL SET</text>
  <path d="M428 300H618L668 350V522H478L428 472Z" fill="#101010"/>
  <text x="462" y="448" fill="#FF7A59" font-family="Impact, Arial Black, sans-serif" font-size="138" font-weight="900">J33</text>
  <path d="M428 566H614L668 620V846H482L428 792Z" fill="#101010"/>
  <text x="548" y="642" fill="#FF7A59" font-family="Impact, Arial Black, sans-serif" font-size="58" font-weight="900" text-anchor="middle">DOOR</text>
  <path d="M486 730H596M556 680L606 730L556 780" fill="none" stroke="#FF7A59" stroke-width="28" stroke-linecap="square" stroke-linejoin="miter"/>
  <text x="54" y="946" fill="#101010" font-family="Arial Black, sans-serif" font-size="26" font-weight="900">ED.09 / FLAT GIG SYSTEM</text>
  <text x="666" y="946" fill="#101010" font-family="Arial Black, sans-serif" font-size="26" font-weight="900" text-anchor="end">NO.156</text>
</svg>
