<svg xmlns="http://www.w3.org/2000/svg" viewBox="0 0 720 1024">
  <defs>
    <linearGradient id="g" x1="0" y1="0" x2="1" y2="1"><stop offset="0" stop-color="#f3ead8"/><stop offset="0.54" stop-color="#101014"/><stop offset="1" stop-color="#24d8ff"/></linearGradient>
    <filter id="rough"><feTurbulence type="fractalNoise" baseFrequency="0.72" numOctaves="3" seed="10"/><feColorMatrix type="saturate" values="0"/><feComponentTransfer><feFuncA type="table" tableValues="0 .2"/></feComponentTransfer></filter>
    <pattern id="dot" width="18" height="18" patternUnits="userSpaceOnUse"><circle cx="5" cy="5" r="2.7" fill="#f3ead8" opacity=".42"/></pattern>
    <pattern id="scan" width="1" height="9" patternUnits="userSpaceOnUse"><rect width="1" height="2" fill="#000" opacity=".24"/></pattern>
  </defs>
  <rect width="720" height="1024" fill="url(#g)"/>
  <rect width="720" height="1024" filter="url(#rough)" opacity=".92"/>
  <rect width="720" height="1024" fill="url(#dot)" opacity=".52"/>
  <rect width="720" height="1024" fill="url(#scan)" opacity=".5"/>
  <path d="M-90 166 C 150 92, 326 248, 798 108" fill="none" stroke="#f3ead8" stroke-width="34" stroke-linecap="round" opacity=".7"/>
  <path d="M-80 758 C 220 544, 412 824, 820 602" fill="none" stroke="#050507" stroke-width="74" stroke-linecap="round" opacity=".72"/>
  <circle cx="303" cy="478" r="118" fill="#050507" opacity=".58"/>
  <circle cx="440" cy="414" r="90" fill="#f3ead8" opacity=".68"/>
  <rect x="46" y="70" width="628" height="884" fill="none" stroke="#f3ead8" stroke-width="7" opacity=".34"/>
  <rect x="64" y="740" width="592" height="86" fill="#050507" opacity=".78" transform="rotate(12 360 783)"/>
  <text x="360" y="148" text-anchor="middle" fill="#f3ead8" font-family="Impact, Arial Black, sans-serif" font-size="70" font-style="italic" letter-spacing="2">SOL ECHO</text>
  <text x="360" y="222" text-anchor="middle" fill="#24d8ff" font-family="Arial Black, sans-serif" font-size="34" letter-spacing="10">TICKET 77</text>
  <text x="88" y="548" fill="#f3ead8" opacity=".72" font-family="Impact, Arial Black, sans-serif" font-size="126" font-style="italic" letter-spacing="-4" transform="rotate(-90 88 548)">SOL</text>
  <text x="360" y="798" text-anchor="middle" fill="#f3ead8" font-family="Arial Black, sans-serif" font-size="42" letter-spacing="7">LIVE / 23:30 / NO COVER</text>
  <text x="360" y="905" text-anchor="middle" fill="#f3ead8" opacity=".78" font-family="Arial Black, sans-serif" font-size="26" letter-spacing="9">SOL - 08</text>
</svg>